<svg id="Layer_1" data-name="Layer 1" xmlns="http://www.w3.org/2000/svg" viewBox="0 0 371 56.44"><title>logo</title><path d="M182.82,237.76h12.27V242A17.25,17.25,0,0,1,185,245.29c-8.92,0-15.21-6.87-15.21-15.79s6.29-15.79,15.21-15.79a13.52,13.52,0,0,1,11.53,7l11.78-6.14c-3.76-6.79-11.12-13.25-23.31-13.25-16.28,0-29.53,10.88-29.53,28.22s13.25,28.22,29.53,28.22a31.39,31.39,0,0,0,24.13-10.63V225.41H182.82Z" transform="translate(-155.5 -201.28)" style="fill:#fff"/><path d="M308.78,234.16c0,6.46-3.92,11.13-11.45,11.13s-11.53-4.67-11.53-11.13v-32H271.48v32.47c0,13.42,8.35,23.07,25.85,23.07S323,248.15,323,234.57V202.18H308.78Z" transform="translate(-155.5 -201.28)" style="fill:#fff"/><polygon points="217.41 12.02 217.41 0.9 175.61 0.9 175.61 13.17 198.84 13.17 175.61 44.25 175.61 55.46 217.98 55.46 217.98 43.19 194.1 43.19 217.41 12.02" style="fill:#fff"/><polygon points="266.16 12.02 266.16 0.9 224.36 0.9 224.36 13.17 247.59 13.17 224.36 44.25 224.36 55.46 266.73 55.46 266.73 43.19 242.84 43.19 266.16 12.02" style="fill:#fff"/><polygon points="288.65 0.9 274.58 0.9 274.58 55.46 310.57 55.46 310.57 43.19 288.65 43.19 288.65 0.9" style="fill:#fff"/><polygon points="340.91 0.9 329.22 21.02 317.36 0.9 301.49 0.9 322.18 33.45 322.18 55.46 336.25 55.46 336.25 33.45 356.86 0.9 340.91 0.9" style="fill:#fff"/><path d="M263.72,220.34c0-10.14-6.88-18.16-19-18.16H217.42v4.18a10.53,10.53,0,0,0,4.25-.94,29.31,29.31,0,0,0-2.75-1.16,30.19,30.19,0,0,1,10.32,2.05c2.41,1,4.82,2.14,7.58,1.47a1.69,1.69,0,0,1,.94.09,3.21,3.21,0,0,0,2.85-.43,1.62,1.62,0,0,1,2.63.89,5.51,5.51,0,0,1,.27,3.3c.45-.25.27-.82.74-1A47,47,0,0,1,248,214.9a5.61,5.61,0,0,1,1.44,3.7,5.7,5.7,0,0,0,.56,2.67,19.86,19.86,0,0,0,2,3.25c1.09,1.55,1.08,1.57-.53,2.47l-.17.14a2.64,2.64,0,0,1-3.31.45,1.76,1.76,0,0,0-2.28.54c-1.13,1.29-2.45,1.06-3.11-.56a3.1,3.1,0,0,0-1.56-1.66,9.64,9.64,0,0,0-2.47-1c-2.26-.48-4.53-.93-6.28-2.64-.2-.2-.45-.36-.68-.55a13.3,13.3,0,0,0,2.28,3.09.58.58,0,0,1,.06.89,17.53,17.53,0,0,0-1.89,3.68,6.17,6.17,0,0,0,1.35,7,10.05,10.05,0,0,0,.9.83l.7,1.31.2.36.15.34c.1.26.2.55.29.85s.18.61.26.93.13.66.18,1,.08.67.09,1l0,.49V244c0,.32-.06.62-.08.91s-.1.56-.15.82-.13.47-.19.67a2.91,2.91,0,0,1-.19.51c-.11.28-.17.45-.17.45l.23-.42c.06-.14.17-.3.24-.49s.18-.42.28-.67.17-.52.25-.81.15-.6.19-.93l.07-.5,0-.52a12.52,12.52,0,0,0-.05-2.12c0-.35-.08-.69-.14-1s-.14-.65-.22-.95a4.08,4.08,0,0,0-.14-.48l0,0h2.51l9.16,18.32H264l-11.12-20C258,234.9,263.72,229.83,263.72,220.34Z" transform="translate(-155.5 -201.28)" style="fill:#fff"/><path d="M495.25,254.75a2.31,2.31,0,1,1,2.32,2.3A2.34,2.34,0,0,1,495.25,254.75Z" transform="translate(-155.5 -201.28)" style="fill:#fff"/><path d="M501.43,250.87a6.06,6.06,0,0,1,6.42-6.19,5.63,5.63,0,0,1,4.84,2.18l-2.44,2.27A2.58,2.58,0,0,0,508,248a2.87,2.87,0,1,0,2.22,4.59l2.44,2.3a5.7,5.7,0,0,1-4.84,2.17A6.07,6.07,0,0,1,501.43,250.87Z" transform="translate(-155.5 -201.28)" style="fill:#fff"/><path d="M513.65,250.87a6.43,6.43,0,1,1,6.4,6.2A6.06,6.06,0,0,1,513.65,250.87Zm9,0a2.58,2.58,0,1,0-2.59,2.88A2.6,2.6,0,0,0,522.64,250.87Z" transform="translate(-155.5 -201.28)" style="fill:#fff"/><path d="M230.76,242.21a9,9,0,0,0-1.59-.6,19.26,19.26,0,0,1-5.9-2.88,1,1,0,0,1-.5-1.32,10,10,0,0,0,.36-3.93,31.85,31.85,0,0,0-5.51,15.16c-.06,0-.2,8.1-.2,8.1h14.07V242.67A4.22,4.22,0,0,0,230.76,242.21Z" transform="translate(-155.5 -201.28)" style="fill:#fff"/></svg>